<svg width="246" height="87" viewBox="0 0 246 87" fill="none" xmlns="http://www.w3.org/2000/svg">
<path fill-rule="evenodd" clip-rule="evenodd" d="M55.4608 79.6129L53.12 85.632H46.72L18.008 14.132V38.132L18.176 78.72L28.672 80.384V85.632H0V80.384L11.52 78.72V6.656L0 5.248V0H22.3247L55.4608 79.6129ZM58.0807 55.5377L61.5665 63.9125L80.896 14.208V62.592C80.896 68.1387 80.8107 73.6 80.64 78.976L69.888 80.384V85.632H104.704V80.384L92.928 78.976C92.8427 73.4293 92.7573 67.9253 92.672 62.464V23.04C92.7573 17.4933 92.8427 12.032 92.928 6.656L104.704 5.248V0H79.488L58.0807 55.5377ZM127.784 85.296C128.808 86.192 130.088 86.64 131.624 86.64C132.733 86.64 133.736 86.4053 134.632 85.936C135.571 85.424 136.424 84.5493 137.192 83.312L135.912 81.904C135.571 82.3307 135.208 82.672 134.824 82.928C134.44 83.184 133.971 83.312 133.416 83.312C132.733 83.312 132.179 83.0347 131.752 82.48C131.325 81.8827 131.112 80.9013 131.112 79.536V65.904C131.112 61.8507 130.301 58.992 128.68 57.328C127.059 55.6213 124.563 54.768 121.192 54.768C117.949 54.768 115.197 55.4933 112.936 56.944C110.717 58.352 109.309 60.272 108.712 62.704C108.925 64.4533 109.928 65.328 111.72 65.328C113.341 65.328 114.451 64.304 115.048 62.256L116.264 58.096C116.947 57.9253 117.565 57.8187 118.12 57.776C118.717 57.7333 119.251 57.712 119.72 57.712C121.853 57.712 123.389 58.224 124.328 59.248C125.267 60.272 125.736 62.3413 125.736 65.456V67.056C124.456 67.3547 123.176 67.696 121.896 68.08C120.616 68.464 119.485 68.8267 118.504 69.168C115.645 70.192 113.448 71.216 111.912 72.24C110.376 73.264 109.309 74.3093 108.712 75.376C108.157 76.4427 107.88 77.5947 107.88 78.832C107.88 81.4773 108.712 83.4827 110.376 84.848C112.083 86.1707 114.109 86.832 116.456 86.832C118.333 86.832 119.933 86.4053 121.256 85.552C122.579 84.6987 124.115 83.4187 125.864 81.712C126.12 83.2053 126.76 84.4 127.784 85.296ZM115.048 81.52C114.067 80.7947 113.576 79.5787 113.576 77.872C113.576 77.232 113.704 76.5493 113.96 75.824C114.259 75.0987 114.856 74.352 115.752 73.584C116.648 72.816 118.013 72.0693 119.848 71.344C120.531 71.088 121.405 70.7893 122.472 70.448C123.539 70.064 124.627 69.7227 125.736 69.424V79.216C124.456 80.1547 123.411 80.88 122.6 81.392C121.789 81.8613 121.085 82.1813 120.488 82.352C119.933 82.5227 119.336 82.608 118.696 82.608C117.245 82.608 116.029 82.2453 115.048 81.52ZM150.682 86.832C148.464 86.832 146.693 86.2347 145.37 85.04C144.048 83.8453 143.387 82.0107 143.387 79.536V77.168C143.429 76.3573 143.451 75.3333 143.451 74.096V58.992H138.139V56.176L143.835 55.472L145.499 46.896H149.339L148.954 55.6H157.594V58.992H148.891V78.832C148.891 80.4533 149.21 81.648 149.85 82.416C150.49 83.1413 151.344 83.504 152.411 83.504C153.136 83.504 153.818 83.3547 154.458 83.056C155.141 82.7573 155.888 82.3307 156.699 81.776L158.234 83.44C156.485 85.7013 153.968 86.832 150.682 86.832ZM165.671 82.864L161.063 83.696V86H176.615V83.696L171.367 82.736C171.324 81.1147 171.282 79.3653 171.239 77.488V72.56V67.76C171.794 65.9253 172.498 64.3253 173.351 62.96C174.204 61.5947 175.271 60.4427 176.551 59.504L177.319 60.208C177.916 60.72 178.535 61.1253 179.175 61.424C179.815 61.68 180.498 61.808 181.223 61.808C183.74 61.808 184.999 60.2507 184.999 57.136C184.615 56.4107 183.996 55.8347 183.143 55.408C182.29 54.9813 181.372 54.768 180.391 54.768C178.684 54.768 176.978 55.4933 175.271 56.944C173.607 58.3947 172.242 60.4 171.175 62.96L170.471 55.408L169.511 54.768L160.551 58.672V60.912L165.607 61.488C165.692 62.768 165.735 63.984 165.735 65.136C165.778 66.288 165.799 67.7387 165.799 69.488V72.56C165.799 74.0107 165.778 75.696 165.735 77.616C165.735 79.4933 165.714 81.2427 165.671 82.864ZM187.678 83.696L192.477 82.8C192.52 81.1787 192.542 79.4293 192.542 77.552C192.584 75.632 192.605 73.968 192.605 72.56V69.552C192.605 67.8027 192.584 66.352 192.542 65.2C192.542 64.0053 192.499 62.768 192.413 61.488L187.294 60.912V58.672L197.15 54.768L198.109 55.408L197.917 64.112V72.56V77.552C197.96 79.4293 198.003 81.1787 198.046 82.8L202.525 83.696V86H187.678V83.696ZM195.23 47.728C194.035 47.728 193.011 47.344 192.158 46.576C191.347 45.808 190.941 44.8267 190.941 43.632C190.941 42.3947 191.347 41.4133 192.158 40.688C193.011 39.92 194.035 39.536 195.23 39.536C196.424 39.536 197.427 39.92 198.238 40.688C199.091 41.4133 199.518 42.3947 199.518 43.632C199.518 44.8267 199.091 45.808 198.238 46.576C197.427 47.344 196.424 47.728 195.23 47.728ZM205.716 43.184V45.808L211.348 46.448L222.676 65.264L211.22 82.608L205.14 83.376V86H219.796V83.376L214.804 82.672L224.212 67.824L233.172 82.672L227.284 83.376V86H245.396V83.376L239.892 82.736L227.86 62.768L227.867 62.7572L226.266 60.1344L226.26 60.144L225.679 59.1727L224.521 57.2762L224.534 57.2587L218.068 46.448L223.7 45.808V43.184H205.716ZM229.631 54.7713L231.417 57.2592L238.356 46.512L243.988 45.808V43.184H229.332V45.808L234.772 46.576L229.631 54.7713Z" fill="#00D1FF"/>
</svg>
