<svg width="105" height="86" viewBox="0 0 105 86" fill="none" xmlns="http://www.w3.org/2000/svg">
<path fill-rule="evenodd" clip-rule="evenodd" d="M53.12 85.632L55.4608 79.6129L22.3247 0H0V5.248L11.52 6.656V78.72L0 80.384V85.632H28.672V80.384L18.176 78.72L18.008 38.132V14.132L46.72 85.632H53.12ZM61.5665 63.9125L58.0807 55.5377L79.488 0H104.704V5.248L92.928 6.656C92.8427 12.032 92.7573 17.4933 92.672 23.04V62.464C92.7573 67.9253 92.8427 73.4293 92.928 78.976L104.704 80.384V85.632H69.888V80.384L80.64 78.976C80.8107 73.6 80.896 68.1387 80.896 62.592V14.208L61.5665 63.9125Z" fill="#00D1FF"/>
</svg>
