<svg width="467" height="372" viewBox="0 0 467 372" fill="none" xmlns="http://www.w3.org/2000/svg">
<path d="M0.467773 343V322.008L46.5478 315.352V27.0959L0.467773 21.4639V0.471924H95.1878L209.876 282.072L318.42 0.471924H419.284V21.4639L372.18 27.0959C371.838 48.5999 371.497 70.4453 371.156 92.6319C371.156 114.819 371.156 137.005 371.156 159.192V184.28C371.156 206.125 371.156 228.141 371.156 250.328C371.497 272.173 371.838 294.189 372.18 316.376L419.284 322.008V343H280.02V322.008L323.028 316.376C323.71 294.872 324.052 273.027 324.052 250.84C324.052 228.653 324.052 206.637 324.052 184.792V57.3039L212.948 343H187.348L70.0998 57.3039L73.1718 154.072V315.352L115.156 322.008V343H0.467773Z" fill="#00D9FF"/>
<rect x="220.458" y="109.825" width="24.2678" height="347.02" transform="rotate(-41.1183 220.458 109.825)" fill="white"/>
</svg>
