<svg width="28" height="27" viewBox="0 0 28 27" fill="none" xmlns="http://www.w3.org/2000/svg">
<g clip-path="url(#clip0_19_7)">
<path d="M18.842 8.88107L8.93839 15.0234C8.76403 15.1315 8.6847 15.3439 8.74555 15.5399L10.074 19.8205C10.1019 19.9105 10.233 19.8981 10.2435 19.8045L10.5664 16.9341C10.5788 16.8232 10.632 16.7209 10.7156 16.647L19.1022 9.2308C19.303 9.0533 19.0698 8.73977 18.842 8.88107Z" fill="#828282"/>
<path d="M0.105957 0V27H27.106V0H0.105957ZM22.6122 7.01573L19.5296 21.7536C19.385 22.4452 18.5738 22.7558 18.0043 22.3377L13.35 18.9213L10.9779 21.3434C10.5615 21.7684 9.84236 21.5964 9.6635 21.0289L7.95124 15.5957L3.36321 14.2409C2.76128 14.0632 2.72579 13.2239 3.3106 12.996L21.3658 5.9601C22.0531 5.69231 22.7633 6.29377 22.6122 7.01573Z" fill="#828282"/>
</g>
<defs>
<clipPath id="clip0_19_7">
<rect x="0.105957" width="27" height="27" rx="13.5" fill="white"/>
</clipPath>
</defs>
</svg>
