<svg width="28" height="27" viewBox="0 0 28 27" fill="none" xmlns="http://www.w3.org/2000/svg">
<g clip-path="url(#clip0_19_11)">
<path d="M11.8702 10.8429V15.7714L16.4131 13.3286L11.8702 10.8429Z" fill="#828282"/>
<path d="M20.3345 0H6.85596C3.14881 0 0.105957 3.04286 0.105957 6.77143V20.25C0.105957 23.9571 3.14881 27 6.85596 27H20.3345C24.0631 27 27.106 23.9571 27.106 20.2286V6.77143C27.106 3.04286 24.0631 0 20.3345 0ZM21.9631 14.1643C21.9631 15.5786 21.8345 17.0143 21.8345 17.0143C21.8345 17.0143 21.6845 18.2143 21.1917 18.75C20.5488 19.4571 19.8417 19.4571 19.5202 19.5C17.1631 19.6714 13.6274 19.6929 13.6274 19.6929C13.6274 19.6929 9.23453 19.6286 7.88453 19.5C7.52024 19.4357 6.6631 19.4571 6.02024 18.75C5.50596 18.2143 5.37739 17.0143 5.37739 17.0143C5.37739 17.0143 5.24881 15.5786 5.24881 14.1643V12.8357C5.24881 11.4214 5.37739 9.98571 5.37739 9.98571C5.37739 9.98571 5.52739 8.78571 6.02024 8.25C6.6631 7.54286 7.37024 7.52143 7.69167 7.47857C10.0702 7.30714 13.606 7.28571 13.606 7.28571C13.606 7.28571 17.1417 7.30714 19.4988 7.47857C19.8202 7.52143 20.5488 7.54286 21.1917 8.22857C21.706 8.76429 21.8345 9.98571 21.8345 9.98571C21.8345 9.98571 21.9631 11.4214 21.9631 12.8357V14.1643Z" fill="#828282"/>
</g>
<defs>
<clipPath id="clip0_19_11">
<rect width="27" height="27" fill="white" transform="translate(0.105957)"/>
</clipPath>
</defs>
</svg>
